HIERARCHY
ROOT hips
{
  OFFSET 0 10.680822821525009 1.3929502295107734
  CHANNELS 6 Xposition Yposition Zposition Yrotation Xrotation Zrotation
  JOINT spine
  {
    OFFSET -7.042017322922631e-31 0.6058489940359625 0
    CHANNELS 3 Yrotation Xrotation Zrotation
    JOINT chest
    {
      OFFSET 0 1.2699794144455032 0
      CHANNELS 3 Yrotation Xrotation Zrotation
      JOINT upperChest
      {
        OFFSET 0 1.217799211677689 0
        CHANNELS 3 Yrotation Xrotation Zrotation
        JOINT neck
        {
          OFFSET 0 1.5248826104153006 0
          CHANNELS 3 Yrotation Xrotation Zrotation
          JOINT head
          {
            OFFSET 0 0.8197772727844447 0
            CHANNELS 3 Yrotation Xrotation Zrotation
            JOINT leftEye
            {
              OFFSET 0.2793952361220866 0.6769952096623495 0.1830357412467788
              CHANNELS 3 Yrotation Xrotation Zrotation
              End Site
              {
                OFFSET 0.2793952361220866 0.6769952096623495 0.1830357412467788
              }
            }
            JOINT rightEye
            {
              OFFSET -0.27939522230689573 0.676995205357064 0.18303631459760622
              CHANNELS 3 Yrotation Xrotation Zrotation
              End Site
              {
                OFFSET -0.27939522230689573 0.676995205357064 0.18303631459760622
              }
            }
          }
        }
        JOINT leftShoulder
        {
          OFFSET 0.41486978509200423 1.1670505408695453 0
          CHANNELS 3 Yrotation Xrotation Zrotation
          JOINT leftUpperArm
          {
            OFFSET 0.9737926108153417 0 0
            CHANNELS 3 Yrotation Xrotation Zrotation
            JOINT leftLowerArm
            {
              OFFSET 2.5269332222665284 0 0
              CHANNELS 3 Yrotation Xrotation Zrotation
              JOINT leftHand
              {
                OFFSET 2.4263782738425914 0 0
                CHANNELS 3 Yrotation Xrotation Zrotation
                JOINT leftIndexProximal
                {
                  OFFSET 0.724320348022514 0.08170607082582437 0.20360061616140124
                  CHANNELS 3 Yrotation Xrotation Zrotation
                  JOINT leftIndexIntermediate
                  {
                    OFFSET 0.36548960630744587 -0.010566596513783999 -0.01414783573280308
                    CHANNELS 3 Yrotation Xrotation Zrotation
                    JOINT leftIndexDistal
                    {
                      OFFSET 0.22502819650693362 -0.007863819831430696 -0.007567681939621526
                      CHANNELS 3 Yrotation Xrotation Zrotation
                      End Site
                      {
                        OFFSET 0.22502819650693362 -0.007863819831430696 -0.007567681939621526
                      }
                    }
                  }
                }
                JOINT leftLittleProximal
                {
                  OFFSET 0.6720322998298205 0.08170601055037707 -0.3230036039466837
                  CHANNELS 3 Yrotation Xrotation Zrotation
                  JOINT leftLittleIntermediate
                  {
                    OFFSET 0.34583592281688713 5.476543019078406e-8 1.3869203337180114e-7
                    CHANNELS 3 Yrotation Xrotation Zrotation
                    JOINT leftLittleDistal
                    {
                      OFFSET 0.19925728062053938 0.003098047439490381 0.0038303983709246925
                      CHANNELS 3 Yrotation Xrotation Zrotation
                      End Site
                      {
                        OFFSET 0.19925728062053938 0.003098047439490381 0.0038303983709246925
                      }
                    }
                  }
                }
                JOINT leftMiddleProximal
                {
                  OFFSET 0.7300436596551069 0.0817073395107144 0.022661722987926763
                  CHANNELS 3 Yrotation Xrotation Zrotation
                  JOINT leftMiddleIntermediate
                  {
                    OFFSET 0.40758254347686607 -0.0000012383587111308714 2.408460318820138e-7
                    CHANNELS 3 Yrotation Xrotation Zrotation
                    JOINT leftMiddleDistal
                    {
                      OFFSET 0.2514490105498507 0.0000013869132886590307 9.738618134136345e-8
                      CHANNELS 3 Yrotation Xrotation Zrotation
                      End Site
                      {
                        OFFSET 0.2514490105498507 0.0000013869132886590307 9.738618134136345e-8
                      }
                    }
                  }
                }
                JOINT leftRingProximal
                {
                  OFFSET 0.7217261161191838 0.08170601902187746 -0.15043395722184966
                  CHANNELS 3 Yrotation Xrotation Zrotation
                  JOINT leftRingIntermediate
                  {
                    OFFSET 0.37808807487521556 0.0000013754022405443322 2.2046919317952884e-7
                    CHANNELS 3 Yrotation Xrotation Zrotation
                    JOINT leftRingDistal
                    {
                      OFFSET 0.21812105442344254 -0.002713483731960231 -0.004991354517454624
                      CHANNELS 3 Yrotation Xrotation Zrotation
                      End Site
                      {
                        OFFSET 0.21812105442344254 -0.002713483731960231 -0.004991354517454624
                      }
                    }
                  }
                }
                JOINT leftThumbProximal
                {
                  OFFSET 0.10793587079521427 -0.1652791240518252 -0.07775251827190094
                  CHANNELS 3 Yrotation Xrotation Zrotation
                  JOINT leftThumbIntermediate
                  {
                    OFFSET 0.40355819082296684 -0.017484006740276614 0.3177776014416309
                    CHANNELS 3 Yrotation Xrotation Zrotation
                    JOINT leftThumbDistal
                    {
                      OFFSET 0.2318764658022603 -0.018510186824293617 0.21396001800186287
                      CHANNELS 3 Yrotation Xrotation Zrotation
                      End Site
                      {
                        OFFSET 0.2318764658022603 -0.018510186824293617 0.21396001800186287
                      }
                    }
                  }
                }
              }
            }
          }
        }
        JOINT rightShoulder
        {
          OFFSET -0.4148697850920044 1.1670505408695453 0
          CHANNELS 3 Yrotation Xrotation Zrotation
          JOINT rightUpperArm
          {
            OFFSET -0.9737926108153414 0 0
            CHANNELS 3 Yrotation Xrotation Zrotation
            JOINT rightLowerArm
            {
              OFFSET -2.5269332222665293 0 0
              CHANNELS 3 Yrotation Xrotation Zrotation
              JOINT rightHand
              {
                OFFSET -2.42637827384259 0 0
                CHANNELS 3 Yrotation Xrotation Zrotation
                JOINT rightIndexProximal
                {
                  OFFSET -0.724320348022514 0.08170607082582437 0.20360061616140124
                  CHANNELS 3 Yrotation Xrotation Zrotation
                  JOINT rightIndexIntermediate
                  {
                    OFFSET -0.36548960630744587 -0.010566596513783999 -0.01414783573280308
                    CHANNELS 3 Yrotation Xrotation Zrotation
                    JOINT rightIndexDistal
                    {
                      OFFSET -0.22502819650693362 -0.007863819831430696 -0.007567681939621526
                      CHANNELS 3 Yrotation Xrotation Zrotation
                      End Site
                      {
                        OFFSET -0.22502819650693362 -0.007863819831430696 -0.007567681939621526
                      }
                    }
                  }
                }
                JOINT rightLittleProximal
                {
                  OFFSET -0.6720322998298205 0.08170601055037707 -0.3230036039466837
                  CHANNELS 3 Yrotation Xrotation Zrotation
                  JOINT rightLittleIntermediate
                  {
                    OFFSET -0.34583592281688713 5.476543019078406e-8 1.3869203337180114e-7
                    CHANNELS 3 Yrotation Xrotation Zrotation
                    JOINT rightLittleDistal
                    {
                      OFFSET -0.19925728062053938 0.003098047439490381 0.0038303983709246925
                      CHANNELS 3 Yrotation Xrotation Zrotation
                      End Site
                      {
                        OFFSET -0.19925728062053938 0.003098047439490381 0.0038303983709246925
                      }
                    }
                  }
                }
                JOINT rightMiddleProximal
                {
                  OFFSET -0.7300436596551069 0.0817073395107144 0.022661722987926763
                  CHANNELS 3 Yrotation Xrotation Zrotation
                  JOINT rightMiddleIntermediate
                  {
                    OFFSET -0.40758254347686607 -0.0000012383587111308714 2.408460318820138e-7
                    CHANNELS 3 Yrotation Xrotation Zrotation
                    JOINT rightMiddleDistal
                    {
                      OFFSET -0.2514490105498507 0.0000013869132886590307 9.738618134136345e-8
                      CHANNELS 3 Yrotation Xrotation Zrotation
                      End Site
                      {
                        OFFSET -0.2514490105498507 0.0000013869132886590307 9.738618134136345e-8
                      }
                    }
                  }
                }
                JOINT rightRingProximal
                {
                  OFFSET -0.7217261161191838 0.08170601902187746 -0.15043395722184966
                  CHANNELS 3 Yrotation Xrotation Zrotation
                  JOINT rightRingIntermediate
                  {
                    OFFSET -0.37808807487521556 0.0000013754022405443322 2.2046919317952884e-7
                    CHANNELS 3 Yrotation Xrotation Zrotation
                    JOINT rightRingDistal
                    {
                      OFFSET -0.21812105442344254 -0.002713483731960231 -0.004991354517454624
                      CHANNELS 3 Yrotation Xrotation Zrotation
                      End Site
                      {
                        OFFSET -0.21812105442344254 -0.002713483731960231 -0.004991354517454624
                      }
                    }
                  }
                }
                JOINT rightThumbProximal
                {
                  OFFSET -0.10793587079521427 -0.1652791240518252 -0.07775251827190094
                  CHANNELS 3 Yrotation Xrotation Zrotation
                  JOINT rightThumbIntermediate
                  {
                    OFFSET -0.40355819082296684 -0.017484006740276614 0.3177776014416309
                    CHANNELS 3 Yrotation Xrotation Zrotation
                    JOINT rightThumbDistal
                    {
                      OFFSET -0.2318764658022603 -0.018510186824293617 0.21396001800186287
                      CHANNELS 3 Yrotation Xrotation Zrotation
                      End Site
                      {
                        OFFSET -0.2318764658022603 -0.018510186824293617 0.21396001800186287
                      }
                    }
                  }
                }
              }
            }
          }
        }
      }
    }
  }
  JOINT leftUpperLeg
  {
    OFFSET 0.8486251390888677 -0.4421577294694363 0
    CHANNELS 3 Yrotation Xrotation Zrotation
    JOINT leftLowerLeg
    {
      OFFSET 0 -4.10147812638609 0
      CHANNELS 3 Yrotation Xrotation Zrotation
      JOINT leftFoot
      {
        OFFSET -0.0002543926476658853 -4.77292286812444 0.007402811231737388
        CHANNELS 3 Yrotation Xrotation Zrotation
        JOINT leftToes
        {
          OFFSET 0 -0.7027875951174846 1.2062924140498823
          CHANNELS 3 Yrotation Xrotation Zrotation
          End Site
          {
            OFFSET 0 -0.7027875951174846 1.2062924140498823
          }
        }
      }
    }
  }
  JOINT rightUpperLeg
  {
    OFFSET -0.8486251390888677 -0.4421577294694363 0
    CHANNELS 3 Yrotation Xrotation Zrotation
    JOINT rightLowerLeg
    {
      OFFSET 0 -4.10147812638609 0
      CHANNELS 3 Yrotation Xrotation Zrotation
      JOINT rightFoot
      {
        OFFSET 0.0002543926476658853 -4.77292286812444 0.007402811231737388
        CHANNELS 3 Yrotation Xrotation Zrotation
        JOINT rightToes
        {
          OFFSET 0 -0.7027875951174846 1.2062924140498823
          CHANNELS 3 Yrotation Xrotation Zrotation
          End Site
          {
            OFFSET 0 -0.7027875951174846 1.2062924140498823
          }
        }
      }
    }
  }
}
MOTION
Frames: 4
Frame Time: 0.03333333333333333
-0.5753047466278076 -0.03495261278477457 0.07886531949043274 4.679822483160797 -0.34033653393609203 1.5287070058305272 -0.7571181681789337 0.0671326840624106 0.07832855325867143 -0.39444812788869604 -7.632246246612354 0.38580340859339857 0 0 0 -0.14096378511413504 -2.951397373435424 -0.2819536042139476 -5.3893705945323624 -9.279668936890252 -0.7392720126499044 0 0 0 0 0 0 2.8712680680333507 3.9391205782472407 -8.845665895784357 -19.044696807505318 7.549149395348095 -62.50870322712605 -8.216075537963992 -1.2889354217064066 0.1988208159053748 -3.1456923004920836 0.41629019222817265 -1.7677800219628348 -1.891966197054278 -2.874742992634139 -21.963648970426565 2.938988896843867 0.9261399165339295 -34.976739664389974 1.9032539634903858 0.3664588760926895 -21.797142722440153 10.944429487822607 -5.333067876401744 -34.86854415851708 3.146726049047298 1.0793653179420803 -37.85927444458463 2.7239073043900266 0.783608115959818 -32.095191365296856 3.9889253218826495 0.1803885555169432 -25.146083455054075 2.9646606945772116 0.9442103083558148 -35.32735167263725 2.6211146369162326 0.7208018857146117 -30.749980900659665 7.185657374198231 2.7223846246364483 -32.82539842990849 3.2326764546094733 1.147666771817062 -39.08485912073028 3.340702195090426 1.2378570935054372 -40.65604906370452 -3.639076412973803 -3.4961158736675473 22.1504990584639 12.10189740341494 17.622872384112092 -10.58440165602244 -13.294329388106876 -20.330273221949355 20.617452284138224 -4.777337878140696 2.7752752899905584 12.252732735157764 -4.695561583272248 2.284757968282751 57.90212298930141 14.50952171464834 -2.2484572065699493 -0.47455741922904776 16.029439558416495 8.752971893009445 0.7224368733921263 4.864214619337632 -2.9253251332128913 16.320821998848366 -2.7147864746246935 1.09061067931428 43.766994395835106 -2.068758447574293 0.5896916443110388 31.81663113423908 -17.683510564038038 -7.44957150979857 35.17584948999699 -2.196473962663712 0.6723832569887964 34.03734752556744 -1.8601804275277738 0.4689929728664235 28.298667872135077 0.03292509453213489 -2.7247785353319833 28.912855308103673 -2.486039746890666 0.8879611510926835 39.30709590161486 -2.099291683294656 0.6088275193648393 32.34258119210404 -4.13934114755267 0.34705414584949446 36.146472990470514 -2.5524890143729646 0.9436258209793468 40.57183604023874 -1.8544867143367223 0.4659371085565246 28.204520080006013 -0.9031321130015932 -1.315289041567289 -15.097447422959286 -17.98283091820695 18.178390731900546 -0.1684416113299095 9.640540668276207 -20.610688893286028 -15.099518581840892 8.343784073612166 -3.6462774368563236 3.620848657692694 1.7574458726366504 10.862685672391532 2.439886247682321 0.6112146175409399 -5.07146530075113 -7.377553652640453 -0.000024768428009045612 0.0002882523049248521 0.000003030204314783369 -10.00787496466432 -4.2111121498933946 -4.136827007102467 -8.251889790019154 15.187580664813284 -3.748363434771034 -0.5737013991481381 -6.227629441676321 7.268551639386715 -0.002220123873019433 -2.764857109920877 -0.20455638149949687
-0.5602171421051025 -0.029095145133407385 0.08233393728733063 4.5291681535229396 -0.33243136085979136 1.4989175944571906 -0.8631629007832492 0.12026319106804866 0.0906054117770941 -0.4448009068314403 -7.652900650635644 0.48386696296612863 0 0 0 -0.14980615483666943 -2.9703707143014078 -0.23207278004504173 -5.586102823932372 -9.427436858797662 -0.043636747490654056 0 0 0 0 0 0 2.724555551534381 3.9026289776359118 -8.594564904826303 -19.155415809779644 7.652117596445352 -62.84937574701465 -8.306927193912074 -1.3030003512909953 0.20210579495287148 -3.145199879300526 0.6439598970314788 -1.6986432785780583 -1.8841047314940234 -2.863944799494381 -21.96033896284297 2.938797390847191 0.925996357088286 -34.97428543456012 1.9008400722259169 0.3654837399747634 -21.76819620642734 10.951605941815883 -5.329408567888153 -34.99646518124955 3.1565064762496724 1.0869917331830428 -37.99777008914082 2.7340758623175723 0.7900005484493506 -32.22926071953257 4.010097138485436 0.19011890455361868 -25.296495982017053 2.974047538140996 0.9508883718101329 -35.45600469740641 2.631111895750708 0.7267617012862794 -30.87990383671257 7.180979948542877 2.7236656643570005 -32.947376972922676 3.242449883009984 1.1556197857236132 -39.22557171026348 3.3492488176279593 1.245215575063959 -40.78177867249654 -3.6478411544918665 -3.4935157798786762 22.150789086216104 12.095570427306264 17.62004879949443 -10.590706943264648 -13.258759018482055 -20.333441767668877 20.56942026191871 -4.932022142201036 2.8046808128640017 12.41120800272593 -4.783115270171112 2.2761846269991413 57.57763122792319 14.683741013309373 -2.2745363981075335 -0.4836983387615515 15.937107493166446 8.482282369916689 0.6901453505530144 4.8746943643494385 -2.9304651570136193 16.24472692998662 -2.7113379053193234 1.0872820684840467 43.6971917737726 -2.0654546816619757 0.5876321268572949 31.759919539959256 -17.68890015084086 -7.453364413528498 35.06866150784532 -2.1923503467835523 0.6696173209485583 33.96474871589294 -1.8559594530097614 0.46671075982550836 28.2287125009279 0.053317141860725656 -2.726374122297858 28.80447660243185 -2.4823064113529383 0.8849442476498851 39.237016507605084 -2.0952901804892794 0.6063026086545916 32.27344230209089 -4.133763572573788 0.3445178850034953 36.04884687171572 -2.5488318260005145 0.9404680324950686 40.501669573413196 -1.8493762965830447 0.46319928664116844 28.11967404184378 -0.8376125982989576 -1.3324599181677048 -15.080844569259481 -17.896314186658163 18.150463726320194 -0.14057972219534523 9.717787928619146 -20.63063360632228 -15.115615297825792 8.44522438393859 -3.614910874854127 3.6458656719845894 1.8094982660964767 10.83922454929051 2.338780358633085 0.6137415173295865 -4.787336067717701 -7.612278209309701 0.000004170122644173375 -0.0005736757551107384 -0.0000010300228880363342 -10.03686432229284 -4.12890920296686 -4.18286051953945 -8.049610363356857 14.952057702565051 -3.732072876118132 -0.5756722131274719 -5.891850847845115 7.448793504304539 -0.0026451368666829066 -2.9335778215688397 -0.2554690130091317
-0.532379150390625 -0.019979926017196448 0.0897464007139206 4.304062557368511 -0.2645237875860008 1.4574211799621641 -0.9840372316075758 0.13018289060256402 0.11370568655301481 -0.4993357123617754 -7.760276315725193 0.6363587388683585 0 0 0 -0.1637394676574473 -2.9981173523377116 -0.16315029351456825 -5.835056662498402 -9.506367456983378 0.7217617015082495 0 0 0 0 0 0 2.6645639461371586 3.8769258223449587 -8.302932182747893 -19.301688200655505 7.861782423543076 -63.17737248956173 -8.478911939529223 -1.3296188600927128 0.2082490189691577 -3.0921407359635684 0.8589361976943259 -1.5279095484155534 -1.8832604296433872 -2.8571075850913763 -21.93998536783862 2.9394168921029697 0.9264303442480648 -34.982620193110996 1.898865568107263 0.364706283244776 -21.74431425354587 10.96217290041993 -5.31887922750036 -35.09429722144759 3.1650610376018298 1.0936833285333372 -38.11905522426017 2.74189159757236 0.7949310292432957 -32.33249695468204 4.032509629777964 0.20152289247031202 -25.42371872109839 2.9809288280872166 0.9557830933345847 -35.55039218858446 2.637525869308618 0.730605380922381 -30.96328326102321 7.174878345405117 2.7214912097509347 -33.022380795034564 3.2495970108422876 1.1614470215800836 -39.32866480086579 3.3557564417161854 1.250840289496996 -40.87773936746383 -3.6456350224392313 -3.488190731582868 22.154099853524272 12.10252249796634 17.62419102760242 -10.591481758484301 -13.20877180202202 -20.32770201302673 20.515713992583194 -5.186693843211582 2.85095470395761 12.631536069474283 -4.854925049030095 2.4058344396948796 57.085940388711975 14.94406731076671 -2.3134749234804923 -0.49746687257749167 15.868617820947003 8.247437910892682 0.739053630706601 4.879354048471621 -2.923533290124213 16.09153525897238 -2.7051972363710513 1.0814574353183628 43.5735869139162 -2.0577983905588053 0.582933085066266 31.628489680255225 -17.700764703620933 -7.458879466097708 34.863364468732115 -2.1850477497491254 0.6646949821839995 33.836345307998144 -1.8484755430714455 0.46271181933721534 28.104816783824525 0.07907222472586577 -2.722283551835737 28.621852615917188 -2.4756427159050878 0.8795017026163662 39.111582733104136 -2.0866297368337317 0.6008462654162081 32.12414297195654 -4.130270238714177 0.3464836278418521 35.87131463251548 -2.5428433280610734 0.9353894265558925 40.386844443302984 -1.8409932454375728 0.45872985039805225 27.98126147478084 -0.7215457884552087 -1.3630119091707795 -15.051636994707614 -17.780351923313273 18.115891817744497 -0.08723572074602794 9.844825399218793 -20.664440867212026 -15.137342985669937 8.514275934866705 -3.6282328687850693 3.621449499199854 1.9474451203873486 10.854347843553013 2.23452717724505 0.6162635528479601 -4.339169545790197 -7.982958342098325 -0.000009195630279933221 -0.00032419313219641665 -8.102295626629876e-7 -10.117228779941865 -3.995503152510262 -4.281305708158933 -7.702607516690932 14.49374623250035 -3.6849835973654868 -0.5796403213800171 -5.411790977098499 7.730675073532474 -0.0029588470700045518 -3.0827874588929594 -0.29723381151708583
-0.511437714099884 -0.014117689994247229 0.09478107839822769 4.175180865301518 -0.20200826579770753 1.4335483499181876 -1.0372650928358849 0.1080603601890628 0.11762327165064664 -0.5196453688260289 -7.851597777842895 0.7310981984071797 0 0 0 -0.17395493412733803 -3.02140028654057 -0.11920325909751832 -5.999220911848925 -9.488837393587662 1.1556089966742324 0 0 0 0 0 0 2.6535158528688276 3.866352037028602 -8.149943497225339 -19.39920556353493 7.988200846372354 -63.293791946481086 -8.577276572688923 -1.3448311663204067 0.21182134778885206 -3.0240700958747126 0.9616417611899365 -1.3957710586079157 -1.8909422929935202 -2.861778633571732 -21.90651431256859 2.940208362175642 0.9269896391413286 -34.99339771335884 1.897565440990161 0.3641894195675663 -21.72870644237882 10.968973973386762 -5.308355211962963 -35.09531993131895 3.1667961018584863 1.0950376605707628 -38.143624907564174 2.742187510394369 0.7951198381169865 -32.33652104974604 4.040105974907204 0.20625844468566334 -25.43898508449908 2.980956506479168 0.9558151143016745 -35.550732462159495 2.636235911278402 0.729831105426741 -30.946666061030506 7.176535227034721 2.7225545038871863 -33.012452324699105 3.24950774254275 1.1613953576605434 -39.32736627253099 3.355905791896908 1.2509625149784338 -40.88014623013465 -3.6055852768376986 -3.480642652396388 22.163769624809124 12.144226040077536 17.64600916914106 -10.573390489062392 -13.144940073488847 -20.310458536284603 20.484889738300076 -5.395834729801736 2.888012042619441 12.785224257715377 -4.8920924022330725 2.509165875720201 56.756295794912454 15.06502692701992 -2.3315111933346504 -0.5039290883342278 15.86374387229865 8.181892251972904 0.8183855681122707 4.876459430778627 -2.91198404947584 15.972275286932836 -2.7005757165797784 1.0770482996274149 43.48052711341703 -2.0507673798073296 0.578618051462014 31.508119489006134 -17.709942133742683 -7.461559953121037 34.726173764855396 -2.179634867282611 0.6610863197101272 33.741409828073024 -1.842789306942193 0.4596782632965882 28.010632146517175 0.08888443120915261 -2.7147240568773574 28.506431428754304 -2.47058552473916 0.8754032152315627 39.01661734275525 -2.079510728177416 0.5963909780053903 32.00161821131759 -4.1265901452792315 0.34630094362340763 35.75805084919272 -2.538709585563957 0.9318724794416959 40.307646335978504 -1.8350042800782762 0.45556096864535145 27.88225438245344 -0.6342246313321873 -1.3859517236595573 -15.029763713736154 -17.711555811075954 18.097181166446553 -0.04514478209929467 9.93003526780143 -20.68866365875335 -15.144355945115882 8.532517423652852 -3.6474901166591502 3.578689480776112 2.0631961789262845 10.858528464954121 2.176381382428717 0.6180902382793055 -4.087742884426668 -8.19342362520548 0.0000075591108292432615 0.000025899784590568798 8.407655338265323e-7 -10.2001942044707 -3.9008511422415726 -4.367547224816258 -7.470485276631178 14.145717703083019 -3.6345500757668656 -0.5809459236698511 -5.107649165958509 7.8939584377381635 -0.0030256126703352097 -3.1337161297654665 -0.308526293901231
